Coordinates
version=1
nRows=14
nColumns=28
inDegrees=yes

Units are S.I. units (second, meters, Newtons, ...)
Angles are in degrees.

endheader
time	pelvis_tilt	pelvis_list	pelvis_rotation	pelvis_tx	pelvis_ty	pelvis_tz	hip_flexion_r	hip_adduction_r	hip_rotation_r	knee_angle_r	ankle_angle_r	subtalar_angle_r	mtp_angle_r	hip_flexion_l	hip_adduction_l	hip_rotation_l	knee_angle_l	socket_flexion	socket_adduction	socket_rotation	socket_tx	socket_ty	socket_tz	foot_flex	lumbar_extension	lumbar_bending	lumbar_rotation
      0.31666667	      1.26926456	     -0.30736934	     -2.60154865	     -0.42442892	      1.03148753	      0.26298076	     15.94987014	     -0.66675384	     -4.90230062	    -61.14075203	      6.96549330	    -18.26262120	     -3.70942887	     -3.95366893	      0.47745674	      8.93085614	      8.66034581	      9.53667722	      0.00000000	      0.00000000	      0.00000000	      0.00000000	      0.00000000	     -0.20275471	    -11.28003207	     -2.76167115	      0.47596314
      0.32083333	      1.26090646	     -0.42858473	     -2.46074534	     -0.41929182	      1.03187077	      0.26277434	     16.40472625	     -0.54504622	     -5.01817438	    -60.55552071	      7.26457155	    -18.27983038	     -3.66537164	     -4.27613695	      0.35698173	      8.98941043	      8.68759965	      9.51821464	      0.00000000	      0.00000000	      0.00000000	      0.00000000	      0.00000000	     -0.06766069	    -11.30871983	     -2.60427917	      0.42345093
      0.32500000	      1.25005728	     -0.60381683	     -2.28788485	     -0.41413120	      1.03225486	      0.26253034	     16.82813333	     -0.37059451	     -5.17498122	    -59.89734689	      7.56735067	    -18.25836260	     -3.63770701	     -4.60535653	      0.16743473	      9.11232401	      8.74079989	      9.50914320	      0.00000000	      0.00000000	      0.00000000	      0.00000000	      0.00000000	      0.04332723	    -11.33484324	     -2.37186940	      0.32211516
      0.32916667	      1.25560113	     -0.74994770	     -2.11855377	     -0.40900457	      1.03263414	      0.26230009	     17.22771595	     -0.23558845	     -5.33724693	    -59.20462862	      7.81324693	    -18.23743556	     -3.63512806	     -4.93680995	      0.01077743	      9.22294616	      8.76268812	      9.48329607	      0.00000000	      0.00000000	      0.00000000	      0.00000000	      0.00000000	      0.15620279	    -11.38210735	     -2.17488084	      0.20533883
      0.33333333	      1.39566174	     -1.11458252	     -1.70681151	     -0.40386508	      1.03329166	      0.26159455	     17.37676967	      0.03589443	     -5.82138090	    -58.35237242	      8.07700070	    -18.09436287	     -3.85445246	     -5.41308910	     -0.40186172	      9.60246877	      8.83669639	      9.48792878	      0.00000000	      0.00000000	      0.00000000	      0.00000000	      0.00000000	      0.26444530	    -11.62118266	     -1.61905853	     -0.33888163
      0.33750000	      1.43638657	     -1.26973731	     -1.52223365	     -0.39878461	      1.03366565	      0.26135762	     17.70257168	      0.17213682	     -6.00572801	    -57.58223663	      8.39892130	    -18.11975862	     -3.96385491	     -5.78010549	     -0.58116802	      9.75511678	      8.87069653	      9.46229623	      0.00000000	      0.00000000	      0.00000000	      0.00000000	      0.00000000	      0.37707464	    -11.70743791	     -1.40189890	     -0.47810150
      0.34166667	      1.44057826	     -1.26884141	     -1.42980253	     -0.39377536	      1.03387926	      0.26128105	     18.12154306	      0.15292230	     -6.07832645	    -56.87493111	      8.52532501	    -18.13949863	     -3.98804670	     -6.08796391	     -0.57015950	      9.76006594	      8.85300454	      9.42151261	      0.00000000	      0.00000000	      0.00000000	      0.00000000	      0.00000000	      0.46857111	    -11.76903668	     -1.40317240	     -0.51367539
      0.34583333	      1.43625494	     -1.35527018	     -1.29612752	     -0.38858785	      1.03410058	      0.26116328	     18.47310776	      0.22102141	     -6.22404067	    -56.05119615	      8.74824970	    -18.18381063	     -4.02363459	     -6.42080015	     -0.67130790	      9.82864023	      8.88751795	      9.39498713	      0.00000000	      0.00000000	      0.00000000	      0.00000000	      0.00000000	      0.59964282	    -11.77973255	     -1.28966367	     -0.57352405
      0.35000000	      1.43684719	     -1.49064429	     -1.13404943	     -0.38346066	      1.03431581	      0.26095906	     18.79974951	      0.33178929	     -6.41017630	    -55.17647506	      8.97390017	    -18.23557468	     -4.08313292	     -6.75488672	     -0.82927617	      9.94105836	      8.93485078	      9.37518735	      0.00000000	      0.00000000	      0.00000000	      0.00000000	      0.00000000	      0.72234094	    -11.81105797	     -1.10635028	     -0.65817821
      0.35416667	      1.55747887	     -1.92550283	     -0.72269423	     -0.37835286	      1.03486592	      0.26031931	     18.86345238	      0.68599288	     -6.92311030	    -54.06240581	      9.16777067	    -18.34417790	     -4.45669641	     -7.19746849	     -1.35298308	     10.34704206	      9.00406683	      9.36946538	      0.00000000	      0.00000000	      0.00000000	      0.00000000	      0.00000000	      0.84645429	    -12.01512126	     -0.46768994	     -1.06090626
      0.35833333	      1.55895289	     -1.86900787	     -0.65860081	     -0.37344526	      1.03492499	      0.26030177	     19.24607177	      0.60087868	     -6.99125059	    -53.24519324	      9.27288821	    -18.38364914	     -4.50370953	     -7.49952800	     -1.28903747	     10.33222815	      8.98717030	      9.32602490	      0.00000000	      0.00000000	      0.00000000	      0.00000000	      0.00000000	      0.93604952	    -12.07784752	     -0.53338962	     -1.10533362
      0.36250000	      1.55232945	     -1.86046578	     -0.57051443	     -0.36843098	      1.03497591	      0.26026216	     19.58484889	      0.56537235	     -7.09756560	    -52.34409624	      9.42492752	    -18.44496496	     -4.55769071	     -7.80874161	     -1.28560608	     10.35322607	      8.99368870	      9.29086593	      0.00000000	      0.00000000	      0.00000000	      0.00000000	      0.00000000	      1.04595943	    -12.10446010	     -0.54053402	     -1.14950180
      0.36666667	      1.83194132	     -2.28138019	     -0.09954261	     -0.36332439	      1.03570153	      0.25960795	     19.38762517	      0.89311829	     -7.68329587	    -51.05601262	      9.61294965	    -18.79277317	     -5.58004764	     -8.42163419	     -1.81813764	     10.80416374	      9.06319274	      9.25648039	      0.00000000	      0.00000000	      0.00000000	      0.00000000	      0.00000000	      1.19628644	    -12.47406353	      0.09874682	     -1.76748540
      0.37083333	      1.79791021	     -2.21179154	     -0.06058695	     -0.35844052	      1.03561464	      0.25965804	     19.76446651	      0.80287224	     -7.74484257	    -50.14805361	      9.74464029	    -18.81460355	     -5.61853594	     -8.69493023	     -1.74573390	     10.77850910	      9.06899890	      9.23135926	      0.00000000	      0.00000000	      0.00000000	      0.00000000	      0.00000000	      1.28686389	    -12.49527959	      0.01436086	     -1.75810078
